<svg width="65" height="65" viewBox="0 0 65 65" fill="none" xmlns="http://www.w3.org/2000/svg">
<path d="M48.3275 52.4356C37.7845 52.4356 27.2415 52.4356 16.6985 52.4356C16.64 52.4129 16.5815 52.3804 16.5197 52.3706C15.2295 52.1659 14.2187 51.5126 13.442 50.4726C12.961 49.8259 12.74 49.0784 12.5677 48.3081C12.5677 37.7684 12.5677 27.2286 12.5677 16.6889C12.5905 16.6174 12.623 16.5459 12.6392 16.4711C13.0617 14.1474 14.9402 12.5679 17.3257 12.5646C27.4495 12.5581 37.5732 12.5581 47.6937 12.5744C48.23 12.5744 48.789 12.6621 49.296 12.8311C51.2525 13.4844 52.4517 15.2491 52.4517 17.3974C52.455 27.4659 52.4517 37.5344 52.4517 47.6029C52.4517 47.7069 52.4517 47.8109 52.4485 47.9149C52.3737 49.3871 51.753 50.5766 50.596 51.4866C49.9265 52.0131 49.14 52.2601 48.3275 52.4356ZM44.421 26.1106C44.2585 26.1106 44.1317 26.1106 44.005 26.1106C43.199 26.1106 42.3962 26.1106 41.5902 26.1106C39.7995 26.1106 38.9025 27.0044 38.8992 28.7789C38.8992 29.3249 38.8992 29.8676 38.8992 30.4136C38.8992 30.8621 38.8992 31.3139 38.8992 31.8046C40.7907 31.8046 42.64 31.8046 44.5055 31.8046C44.2357 33.4296 43.9757 35.0124 43.7092 36.6341C42.1005 36.6341 40.5112 36.6341 38.9317 36.6341C38.9317 40.8884 38.9317 45.0971 38.9317 49.3189C41.8307 49.3189 44.7005 49.3189 47.5702 49.3189C48.7272 49.3189 49.3382 48.7014 49.3382 47.5314C49.3382 37.5116 49.3382 27.4919 49.3382 17.4689C49.3382 16.2826 48.7272 15.6716 47.541 15.6716C37.518 15.6716 27.495 15.6716 17.472 15.6716C16.289 15.6716 15.6845 16.2826 15.6845 17.4786C15.6845 27.4854 15.6845 37.4921 15.6845 47.5021C15.6845 48.7144 16.289 49.3189 17.5012 49.3189C22.8767 49.3189 28.2522 49.3189 33.6245 49.3189C33.7642 49.3189 33.9007 49.3189 34.0405 49.3189C34.0405 45.0646 34.0405 40.8526 34.0405 36.6146C32.487 36.6146 30.9595 36.6146 29.4157 36.6146C29.4157 34.9994 29.4157 33.4101 29.4157 31.7819C30.9757 31.7819 32.513 31.7819 34.0795 31.7819C34.0795 30.5339 34.0405 29.3249 34.086 28.1224C34.2095 24.9666 36.4097 22.2821 39.4712 21.5119C41.0832 21.1056 42.7277 21.3299 44.356 21.2941C44.3755 21.2941 44.395 21.3266 44.4177 21.3461C44.421 22.9159 44.421 24.4856 44.421 26.1106Z" fill="#B4B4B4"/>
</svg>
