<svg width="65" height="65" viewBox="0 0 65 65" fill="none" xmlns="http://www.w3.org/2000/svg">
<g clip-path="url(#clip0_7_274)">
<path d="M39.7563 32.5C39.7563 28.4688 36.5312 25.2438 32.5 25.2438C28.4688 25.2438 25.2438 28.4688 25.2438 32.5C25.2438 36.5312 28.4688 39.7563 32.5 39.7563C36.5312 39.7563 39.7563 36.5312 39.7563 32.5ZM43.5187 32.5C43.5187 38.6812 38.6812 43.5187 32.5 43.5187C26.3188 43.5187 21.4812 38.6812 21.4812 32.5C21.4812 26.3188 26.3188 21.4812 32.5 21.4812C38.6812 21.4812 43.5187 26.3188 43.5187 32.5ZM46.475 20.9437C46.475 22.5562 45.4 23.6312 43.7875 23.6312C42.175 23.6312 41.1 22.5562 41.1 20.9437C41.1 19.3312 42.175 18.2562 43.7875 18.2562C45.4 18.2562 46.475 19.6 46.475 20.9437ZM32.5 14.7625C29.275 14.7625 22.5563 14.4938 19.8688 15.5687C17.9875 16.375 16.375 17.9875 15.8375 19.8688C14.7625 22.5563 15.0312 29.275 15.0312 32.5C15.0312 35.725 14.7625 42.4438 15.8375 45.1312C16.375 47.0125 17.9875 48.625 19.8688 49.1625C22.5563 50.2375 29.5438 49.9688 32.5 49.9688C35.4562 49.9688 42.4438 50.2375 45.1312 49.1625C47.0125 48.3563 48.3563 47.0125 49.1625 45.1312C50.2375 42.175 49.9688 35.4562 49.9688 32.5C49.9688 29.5438 50.2375 22.5563 49.1625 19.8688C48.625 17.9875 47.0125 16.375 45.1312 15.8375C42.4438 14.4937 35.725 14.7625 32.5 14.7625ZM54 32.5V41.3687C54 44.5938 52.925 47.8188 50.5063 50.5063C48.0875 52.925 44.8625 54 41.3687 54H23.6312C20.4062 54 17.1813 52.925 14.4937 50.5063C12.3437 48.0875 11 44.8625 11 41.3687V32.5V23.6312C11 20.1375 12.3437 16.9125 14.4937 14.4937C17.1813 12.3437 20.4062 11 23.6312 11H41.3687C44.5938 11 47.8188 12.075 50.5063 14.4937C52.6563 16.9125 54 20.1375 54 23.6312V32.5Z" fill="#B4B4B4"/>
</g>
<defs>
<clipPath id="clip0_7_274">
<rect width="65" height="65" fill="white"/>
</clipPath>
</defs>
</svg>
