<svg width="37" height="39" viewBox="0 0 37 39" fill="none" xmlns="http://www.w3.org/2000/svg">
<g clip-path="url(#clip0_1_24)">
<path d="M12.0362 20.5484V18.2964L13.4849 16.9416H15.8904V20.5484H14.6025V19.7132L13.7121 20.5484H12.0362ZM13.3254 18.1457V19.3438H14.6025V18.1457H13.3254Z" fill="#0C1521"/>
<path d="M22.5517 26.0113H24.4855V27.2162H22.3991V28.4155H24.4855V29.6204H21.1099V27.3672L22.5517 26.0113Z" fill="#0C1521"/>
<path d="M12.265 6.81547L13.2696 6.98545V6.98347L12.265 6.81547ZM11.8484 5.31934L11.8503 5.32132L15.3176 5.90096L11.8484 5.31934Z" fill="#0C1521"/>
<path d="M1.36538 33.1719H0V11.3336L2.32596 8.93741L5.94112 12.662L4.39672 14.2531L6.21942 16.1308L5.25389 17.1255L2.46593 14.2531L4.01034 12.662L2.32596 10.9265L1.36538 11.9164V33.1719Z" fill="#0C1521"/>
<path d="M26.4724 12.0866L26.6374 11.7376L29.2851 14.4655L30.2501 13.4706L27.2688 10.3998L28.4136 7.97304L26.7139 5.79868L27.5237 5.09042L26.6418 4.01726L25.1524 5.31904L25.1505 5.32103L21.7218 5.89274L20.9039 6.07915L20.9683 5.99416L25.31 4.35949L28.5451 0L18.4996 2.01146L8.45326 0L11.6908 4.36062L16.0309 5.99529L16.095 6.07745L15.3176 5.90095L11.8506 5.32131L11.8487 5.31933L10.3574 4.01754L9.47543 5.0907L10.2872 5.79896L8.58745 7.97333L9.73228 10.4001L6.75155 13.4706L7.71708 14.4655L10.3631 11.7376L10.5281 12.0866L12.7749 12.6204L6.82745 18.748L8.74311 20.7215V28.9492L18.4996 39L28.2558 28.9492V20.7215L30.1717 18.748L24.2237 12.6204L26.4724 12.0866ZM22.1035 8.88358C22.5383 8.88396 22.9555 8.70637 23.2633 8.38989C23.5711 8.0734 23.7442 7.64393 23.7447 7.19594C23.7452 7.12477 23.7406 7.05365 23.7309 6.98318L24.7339 6.81659C24.7539 6.942 24.7643 7.06884 24.7649 7.19594C24.7653 7.78135 24.5548 8.34607 24.1742 8.7808C23.7936 9.21554 23.27 9.48937 22.7047 9.5493C22.1395 9.60923 21.5727 9.45101 21.1142 9.10524C20.6556 8.75948 20.3379 8.25076 20.2225 7.67756L20.5126 7.61126C20.6033 7.97505 20.8088 8.29746 21.0968 8.52778C21.3848 8.7581 21.7389 8.88326 22.1035 8.88358ZM23.3261 18.6457L24.3579 19.7106L24.0582 20.0194L23.149 19.0828H22.6051V18.5213L21.6959 17.5844L21.9957 17.2756L23.0297 18.3386V18.6457H23.3261ZM21.0967 18.2023L21.3951 17.8935L22.4288 18.9565V19.2647H22.7266L23.7587 20.3299L23.4576 20.6353L22.5501 19.7004H22.0042V19.1389L21.0967 18.2023ZM12.265 6.81546L13.2696 6.98204V6.98403C13.2602 7.05386 13.2557 7.1243 13.2561 7.1948C13.256 7.60685 13.4019 8.00476 13.6666 8.31369C13.9313 8.62262 14.2964 8.82127 14.6933 8.87226C15.0902 8.92326 15.4915 8.82309 15.8217 8.5906C16.1519 8.3581 16.3883 8.00931 16.4863 7.60985L16.7784 7.67756C16.6588 8.28561 16.3121 8.82091 15.813 9.16804C15.3138 9.51517 14.7023 9.64632 14.1101 9.53322C13.518 9.42011 12.9927 9.07181 12.6476 8.56342C12.3024 8.05502 12.1651 7.42725 12.265 6.81546ZM11.4706 10.8667L10.1937 8.15917L10.8733 7.29056C10.9219 9.27624 12.4658 10.8851 14.3856 10.9613L13.8812 11.4806L13.8911 11.4407L11.4706 10.8667ZM14.4224 29.8813L13.513 28.9464H12.9682V28.3826L12.0591 27.4477L12.3588 27.1389L13.3925 28.203V28.5098H13.6904L14.7225 29.573L14.4224 29.8813ZM15.0219 29.2634L14.1128 28.3285H13.5677V27.7658L12.6586 26.8309L12.9583 26.5218L13.9923 27.5851V27.8919H14.2882L15.322 28.9549L15.0219 29.2634ZM15.6217 28.6458L14.7123 27.7109H14.1675V27.1471L13.2583 26.2122L13.5581 25.9034L14.5899 26.9664V27.2732H14.888L15.9226 28.3375L15.6217 28.6458ZM17.8181 22.619H10.1101V20.1379L8.75878 18.748L17.8181 9.41308V22.619ZM18.4996 6.72339L18.408 6.81773L16.8622 4.80995L12.534 3.18123L11.7222 2.08597L18.4996 3.44385L23.1257 2.51716L18.4996 4.55497V6.72339ZM26.891 28.3656L19.183 36.3063V24.0242H26.891V28.3656ZM24.9577 19.0927L24.6577 19.4018L23.7485 18.4649H23.2035V17.9049L22.2941 16.9682L22.5941 16.6583L23.6278 17.7235V18.0284H23.9251L24.9577 19.0927ZM22.6136 10.9619C23.5422 10.9235 24.4218 10.5229 25.0743 9.84122C25.7269 9.15958 26.1035 8.24788 26.1278 7.29084L26.8074 8.15917L25.53 10.867L23.11 11.4407L23.1196 11.4826L22.6136 10.9619Z" fill="#0C1521"/>
<path d="M14.3545 36.9582L12.5904 38.7773L11.6248 37.7826L12.4251 36.9582L11.6463 36.1559L10.8537 36.9744L9.88793 35.9794L10.6824 35.1629L9.90361 34.3609L9.10335 35.185L8.13783 34.1903L9.90361 32.371L14.3545 36.9582Z" fill="#0C1521"/>
<path d="M21.7218 5.89274L25.1505 5.32103L25.1524 5.31905L21.7218 5.89274Z" fill="#0C1521"/>
<path d="M37 33.1719H35.6349V11.9164L34.674 10.9265L32.9897 12.662L34.5343 14.2531L31.7461 17.1255L30.7809 16.1308L32.6036 14.2531L31.0589 12.662L34.674 8.93741L37 11.3336V33.1719Z" fill="#0C1521"/>
<path d="M33.9667 31.1604H32.6014V21.0498L31.495 22.1896V28.6574H30.1297V21.6068L33.9667 17.6541V31.1604Z" fill="#0C1521"/>
<path d="M27.0975 34.3609L26.3187 35.1629L27.1129 35.9794L26.1474 36.9744L25.3548 36.1579L24.576 36.9582L25.3763 37.7826L24.4105 38.7773L22.6447 36.9582L27.0975 32.371L28.8613 34.1903L27.8975 35.185L27.0975 34.3609Z" fill="#0C1521"/>
<path d="M4.39892 31.1604H3.03354V17.6541L6.87035 21.6068V28.6574H5.50525V22.1896L4.39892 21.0498V31.1604Z" fill="#0C1521"/>
</g>
<defs>
<clipPath id="clip0_1_24">
<rect width="37" height="39" fill="white"/>
</clipPath>
</defs>
</svg>
