<svg width="69" height="69" viewBox="0 0 69 69" fill="none" xmlns="http://www.w3.org/2000/svg">
<path d="M33.6478 13.7344C34.5137 13.7344 35.3797 13.7344 36.2422 13.7344C36.3457 13.7586 36.4492 13.7931 36.5527 13.8034C41.1481 14.176 45.226 15.832 48.6277 18.937C54.3443 24.1569 56.7352 30.6498 55.2517 38.2743C52.7297 51.2532 38.5226 58.7328 26.0164 52.8816C25.7507 52.7574 25.5161 52.6849 25.2125 52.7574C22.6112 53.3611 20.003 53.9442 17.4017 54.5445C16.4047 54.7722 15.4145 55.024 14.4244 55.2655C14.3692 55.2655 14.3174 55.2655 14.2622 55.2655C14.2795 55.1586 14.2898 55.0516 14.3105 54.9481C15.0833 51.4153 15.863 47.8825 16.6255 44.3497C16.6669 44.16 16.6289 43.9185 16.5427 43.746C15.5629 41.8209 14.8418 39.8095 14.483 37.674C14.3657 36.9702 14.2795 36.2629 14.1794 35.5557C14.1794 34.7173 14.1794 33.879 14.1794 33.0406C14.3105 32.1333 14.4106 31.2225 14.5831 30.3255C16.1425 22.1352 23.0666 15.3939 31.288 14.0587C32.0677 13.9311 32.8577 13.8414 33.6478 13.7344ZM18.5092 50.9565C18.6437 50.9323 18.7196 50.9185 18.7921 50.9013C21.0277 50.3941 23.2667 49.8904 25.5023 49.3729C25.8749 49.2867 26.182 49.3108 26.5304 49.5006C30.667 51.7224 35.0312 52.2675 39.5542 51.0255C50.9978 47.886 56.0072 34.8312 49.6006 24.94C45.7021 18.9163 38.4536 15.8527 31.4122 17.3362C26.1958 18.4368 22.2283 21.3417 19.5994 25.9819C17.7674 29.2146 17.1016 32.7129 17.5673 36.4113C17.8744 38.8297 18.7093 41.0653 19.9306 43.1664C20.0341 43.3458 20.11 43.6045 20.0686 43.8012C19.7581 45.3088 19.4165 46.8061 19.0853 48.3103C18.8921 49.1797 18.7058 50.0457 18.5092 50.9565Z" fill="white"/>
<path d="M28.673 25.2475C29.8839 25.2475 30.0461 25.3476 30.4635 26.3481C30.9155 27.4314 31.3502 28.5216 31.809 29.6014C31.947 29.9257 31.9781 30.2397 31.7745 30.526C31.4364 30.9952 31.0914 31.4575 30.7085 31.8888C30.2255 32.4304 30.1944 32.5477 30.5636 33.1584C32.085 35.6838 34.193 37.5226 36.9288 38.637C37.467 38.8543 37.6533 38.8267 38.0225 38.3817C38.4882 37.8228 38.9471 37.2535 39.4025 36.6808C39.7509 36.2392 39.9372 36.1357 40.4409 36.3703C41.7761 36.9844 43.1009 37.6261 44.4084 38.2954C44.574 38.3817 44.7189 38.6887 44.7189 38.8888C44.7086 40.186 44.3429 41.3073 43.194 42.1077C41.7209 43.1323 40.1615 43.2186 38.4779 42.8149C34.0619 41.7592 30.6705 39.2442 28.0485 35.6079C27.1412 34.3486 26.2131 33.0963 25.7543 31.5817C25.1126 29.4565 25.4645 27.559 27.0204 25.9168C27.5103 25.3993 28.083 25.1613 28.673 25.2475Z" fill="white"/>
</svg>
