<svg width="65" height="65" viewBox="0 0 65 65" fill="none" xmlns="http://www.w3.org/2000/svg">
<path d="M31.6972 12.9385C32.513 12.9385 33.3287 12.9385 34.1412 12.9385C34.2387 12.9612 34.3362 12.9937 34.4337 13.0035C38.7627 13.3545 42.6042 14.9145 45.8087 17.8395C51.194 22.7567 53.4462 28.8732 52.0487 36.0557C49.673 48.2822 36.2895 55.3282 24.5082 49.8162C24.258 49.6992 24.037 49.631 23.751 49.6992C21.3005 50.268 18.8435 50.8172 16.393 51.3827C15.4537 51.5972 14.521 51.8345 13.5882 52.062C13.5362 52.062 13.4875 52.062 13.4355 52.062C13.4517 51.9612 13.4615 51.8605 13.481 51.763C14.209 48.435 14.9435 45.107 15.6617 41.779C15.7007 41.6002 15.665 41.3727 15.5837 41.2102C14.6607 39.3967 13.9815 37.502 13.6435 35.4902C13.533 34.8272 13.4517 34.161 13.3575 33.4947C13.3575 32.705 13.3575 31.9152 13.3575 31.1255C13.481 30.2707 13.5752 29.4127 13.7377 28.5677C15.2067 20.8522 21.7295 14.5017 29.4742 13.244C30.2087 13.1237 30.953 13.0392 31.6972 12.9385ZM17.4362 48.0027C17.563 47.98 17.6345 47.967 17.7027 47.9507C19.8087 47.473 21.918 46.9985 24.024 46.511C24.375 46.4297 24.6642 46.4525 24.9925 46.6312C28.8892 48.7242 33.0005 49.2377 37.2612 48.0677C48.0415 45.1102 52.7605 32.8122 46.7252 23.4945C43.0527 17.82 36.2245 14.934 29.5912 16.3315C24.6772 17.3682 20.9397 20.1047 18.4632 24.476C16.7375 27.5212 16.1102 30.8167 16.549 34.3007C16.8382 36.579 17.6247 38.685 18.7752 40.6642C18.8727 40.8332 18.9442 41.077 18.9052 41.2622C18.6127 42.6825 18.291 44.093 17.979 45.51C17.797 46.329 17.6215 47.1447 17.4362 48.0027Z" fill="#0085FF"/>
<path d="M27.0107 23.7839C28.1515 23.7839 28.3042 23.8781 28.6975 24.8206C29.1232 25.8411 29.5327 26.8681 29.965 27.8854C30.095 28.1909 30.1242 28.4866 29.9325 28.7564C29.614 29.1984 29.289 29.6339 28.9282 30.0401C28.4732 30.5504 28.444 30.6609 28.7917 31.2361C30.225 33.6151 32.2107 35.3474 34.788 36.3971C35.295 36.6019 35.4705 36.5759 35.8182 36.1566C36.257 35.6301 36.6892 35.0939 37.1182 34.5544C37.4465 34.1384 37.622 34.0409 38.0965 34.2619C39.3542 34.8404 40.6022 35.4449 41.834 36.0754C41.99 36.1566 42.1265 36.4459 42.1265 36.6344C42.1167 37.8564 41.7722 38.9126 40.69 39.6666C39.3022 40.6319 37.8332 40.7131 36.2472 40.3329C32.0872 39.3384 28.8925 36.9691 26.4225 33.5436C25.5677 32.3574 24.6935 31.1776 24.2612 29.7509C23.6567 27.7489 23.9882 25.9614 25.454 24.4144C25.9155 23.9269 26.455 23.7026 27.0107 23.7839Z" fill="#0085FF"/>
</svg>
